<?xml version="1.0" encoding="utf-8"?>
<!-- Generator: Adobe Illustrator 24.1.1, SVG Export Plug-In . SVG Version: 6.00 Build 0)  -->
<svg version="1.1" id="Camada_1" xmlns="http://www.w3.org/2000/svg" xmlns:xlink="http://www.w3.org/1999/xlink" x="0px" y="0px"
	 viewBox="0 0 813.4 201.8" style="enable-background:new 0 0 813.4 201.8;" xml:space="preserve">
<style type="text/css">
	.st0{fill-rule:evenodd;clip-rule:evenodd;fill:#FFFFFF;}
	.st1{fill-rule:evenodd;clip-rule:evenodd;fill:#F29100;}
	.st2{clip-path:url(#SVGID_2_);}
	.st3{clip-path:url(#SVGID_4_);}
</style>
<g id="surface1">
	<path class="st0" d="M420.1,141.7l-1.5,10.5l-85.6,9.6l0.8-7.8c-7.8,2.7-16.1,4.2-23.4,4.2c-15.5,0-28.7-5.1-39-15.3
		c-11.1-11-16.7-25.9-16.7-44.3c0-18.4,5.6-33.4,16.6-44.4C281.3,44,294,38.8,308.9,38.8c11.7,0,24.3,3.4,34.2,9.3
		c4.2-6.5,11.5-10.7,19.7-10.7c12.8,0,23.3,10.2,23.7,22.9l4.3-18.2l7.1-0.7c5.4-0.5,18.9-1.7,27.9-2c1,0,2-0.1,3-0.1
		c12.5,0,22.4,3,30,9.3c5.5,4.5,9.2,9.7,11.4,15.8l10.7-26.5l45.9,4.1l4.4,16.6l1.1-24.1l73.5-6.6l-1,10.2l58-5.4l-0.7,6.8l39.8,3.5
		l4.1,17.3c1.6-2.5,3.5-4.9,5.7-7.1c8.8-8.9,19.8-13.1,33.7-13.1c2.2,0,4.5,0.1,6.9,0.3c5.7,0.5,12.3,2.2,17.6,4.6l7.9,3.6
		l-12.5,43.2l-10.7-5.3c-1.3-0.6-2.3-1-3.1-1.3c0.3,0.5,0.7,1,1.2,1.6c0.6,0.7,2.4,2.9,4.1,5c4.2,5,5.7,6.8,6.4,7.8
		c5,6.7,7.4,13.8,7.4,21.9c0,11.6-4.6,21.3-13.8,28.7c-8.3,6.9-19.2,10.7-30.7,10.7c-5.7,0-34.8-3-40.6-3.7l-7.8-0.8l-4.1-29.4
		l-2-0.2l-11.5,37l-30.2-10.8l0.1,2.9l-55.8,6.2l0.8-5.7l-49.3,5.6l0.5-10.5l-24.8,2.8l-3.2-25.5l-2.2,0.3l-9.5,30.8l-27-9.9
		l-24.4,14.3L420.1,141.7z M579.2,127.7l1.3-8.9l-2.5-0.2L579.2,127.7z M383.5,73l0.3-1.1c-0.2,0.4-0.4,0.7-0.6,1.1L383.5,73z"/>
	<path class="st1" d="M679.6,98.3l-3-21.2l-7,22.4L679.6,98.3z M504.9,102l-3.4-24.1l-7.2,23.1L504.9,102z M434.9,82.2
		c0-2.5-0.6-4.6-2.6-6.4c-1.6-1.4-3.3-2-5.3-2.2c-0.5-0.1-1.4-0.1-2-0.1c-1,0-4.2,0.3-5.4,0.5l-2.9,21.2c4.1,0.2,7.5-0.4,9.9-1.2
		c1.7-0.7,3.1-1.5,4.3-2.6C433.6,88.9,434.9,85.9,434.9,82.2z M585.2,109.1l-18.9-1.7l5.6,39.4l-35.4,4l0.5-10.5l-26.7,3l-3.2-25.5
		l-18.6,2.1l-8.3,27l-21.5-7.9l-20.3,11.9l-21.6-32.4l-3.4,0.4l-3.5,24.3l-65.6,7.3l7-70.3l24.5,2.2l5.6,43.8l17.6-74.7
		c7.9-0.7,19.7-1.7,27.3-2c11.4-0.4,19.9,1.8,26.2,7c7.3,6,10,13,10,22.7c0,13-7.1,24.1-19.4,30.6l14,13.9l30.2-74.9l31.5,2.8
		l19.4,73.1l3.6-80.7l52.7-4.7l-3.1,31.4l-30.8-2.8l2.8,20.2l24.1-2.5L585.2,109.1z M362.9,74.5c7.5-0.1,13.7-6.3,13.7-13.5
		c0-7.5-6.2-13.6-13.7-13.6c-7.5,0-13.5,6.1-13.5,13.6C349.3,68.3,355.4,74.5,362.9,74.5z M316.9,120.6c-1.9,0.8-3.7,1.3-5.4,1.3
		c-4.5,0-8.1-2.6-10.7-7.7c-2.5-4.7-3.7-10-3.7-16.3c0-6.4,1.6-11.6,4.9-15.5c3.2-3.8,7.1-5.5,11.8-5.8c5.7-0.3,10.6,1,15.9,5.7
		l10.6-24.3c-7.9-5.2-19.4-9.3-31.4-9.3c-12.1,0-22.3,4.1-30.6,12.4c-9.1,9.1-13.6,21.5-13.6,37.3c0,15.7,4.6,28.1,13.8,37.1
		c8.4,8.3,19,12.4,32,12.4c8.9,0,19.2-2.6,27.5-6.6l5.2-50.4h-30L316.9,120.6z M633.1,113.4l5.1-26.7l-21.1,2.6l-0.7-16.6l32,2.9
		l3.1-31.8l-51,4.7L586,150.9l33.6-3.8l-1.5-35L633.1,113.4z M755.1,105.5c3.5,4.7,5.5,9.7,5.5,16c0,8.8-3.4,15.5-10.1,20.9
		c-6.6,5.4-15.3,8.5-24.4,8.5c-5.4,0-39.6-3.6-39.6-3.6l-4.2-29.5l-17.9-1.7l-10.8,34.8l-27-9.6l37-91.6l30.1,2.7l16.8,70.2
		c1.5,0.4,4.4,1.1,6.4,1.3c8.2,1,11.5-2.2,11.1-7.6c-0.1-2.6-2.3-5.8-5.3-10c-1.1-1.5-5.9-8.3-7.8-11.2c-3.2-4.9-4.8-9.9-4.8-14.9
		c0-7.2,2.3-13.7,8.6-20.1c8.2-8.3,18.4-11.1,32.6-9.9c4,0.4,9.5,1.6,14.3,3.7l-6.7,23.4c-3.6-1.7-6.8-2.7-9.8-2.7
		c-3.1,0-5.4,0.5-7.3,2.3c-1.6,1.5-2.4,3.6-2.4,5.4c0,2.8,1.8,6.2,5.3,10.6C746.3,94.9,754.3,104.3,755.1,105.5z"/>
	<g>
		<defs>
			<rect id="SVGID_1_" x="786" y="46" width="27.4" height="28"/>
		</defs>
		<clipPath id="SVGID_2_">
			<use xlink:href="#SVGID_1_"  style="overflow:visible;"/>
		</clipPath>
		<g class="st2">
			<path class="st1" d="M800.2,55.1H797v4.3h3.3c1.6,0,2.6-0.8,2.6-2.1C802.8,55.8,801.9,55.1,800.2,55.1z M802.9,65.7l-3.1-4.4H797
				v4.4h-2.2V53h5.7c2.9,0,4.7,1.5,4.7,4c0,2.1-1.2,3.4-3,3.9l3.4,4.8H802.9z M799.8,46.1c-7.4,0-13.5,6.1-13.5,13.5
				c0,7.3,6.1,13.5,13.5,13.5c7.5-0.1,13.6-6.2,13.6-13.5C813.4,52.2,807.3,46.1,799.8,46.1z M799.8,47.8c3.2,0,6.1,1.2,8.4,3.5
				c2.2,2.2,3.5,5.2,3.5,8.3c0,3-1.2,5.9-3.5,8.2c-2.3,2.3-5.2,3.5-8.4,3.6c-3.1,0-6-1.2-8.3-3.5c-2.2-2.2-3.4-5.2-3.4-8.3
				C788.1,53.1,793.3,47.8,799.8,47.8z"/>
		</g>
	</g>
	<path class="st1" d="M199.1,100.8c0,54.2-43.9,98.2-98.2,98.2c-54.2,0-98.2-43.9-98.2-98.2c0-54.2,43.9-98.2,98.2-98.2
		C155.1,2.7,199.1,46.6,199.1,100.8z"/>
	<g>
		<defs>
			<rect id="SVGID_3_" width="202" height="201.8"/>
		</defs>
		<clipPath id="SVGID_4_">
			<use xlink:href="#SVGID_3_"  style="overflow:visible;"/>
		</clipPath>
		<g class="st3">
			<path class="st0" d="M147.5,40.6c0,0,0.3-2.5-2.4-3.9c-1.4-0.7-4-0.1-4-0.1l-3.3,18.9l7,1.9L147.5,40.6z M71.8,36
				c0,0-6.8-1.1-7.7,4c-0.4,2.1-1.6,10.4-2.3,15.7l7.1,1.8L71.8,36z M180.3,59.5L160.1,66l5.6,9.1c0,0,5,0,8.5-1.7
				C182.8,69.4,180.3,59.5,180.3,59.5z M99.7,115.9l-2.9-9.7c2-0.2,4.1,0.8,5.1,2.7C103.2,111.5,102.2,114.6,99.7,115.9z
				 M46.8,150.7l-9.5,3.5l-0.8,6.3l-4.6,0.7c0,0,0,0-0.1-0.1l4.1-21.6l2.6,1l3.3,5.6c0,0,3,0.3,6.5,0.6L46.8,150.7z M46.9,122
				l-8.9,5.9l2.5-13.3l3.3-1.5l4,4.4L46.9,122z M50.6,112.1l-2.7-3.8l3.9-3.5l6.2,2.6l-4.2,4.9L50.6,112.1z M62.6,137.2l1.5-0.7
				l-0.9,17l-6.3-3.6l-0.4-2.6c0,0,1.9-3.1,2.1-3.5C59.2,142.9,62.6,137.2,62.6,137.2z M59.9,174.7l2.3-0.3l-0.7,13.4l-5.1-2.6l0,0
				l-3.5-1.8l0.4-1.7l4.8-1.2L59.9,174.7z M45.8,128l4.8-0.8l8.7,4.5l-5.5,9.5l-8.6-0.3l-5.2-7L45.8,128z M55.3,173.7l-12.1,0.4
				l-4.2-3.8l2.1-11.7l11.9-4.2l7.6,5.4l-0.2,5.6L55.3,173.7z M62.6,116.2l1.9,7.4l-3.1,3.1l-5.6-2.6l-0.9-5.6l1.9-1.9L62.6,116.2z
				 M68.8,73.5c-2,0.7-3.6,2.1-4.5,4l-2.6-1.2c1.2-2.6,3.4-4.6,6.1-5.5c2.7-1,5.6-0.8,8.2,0.4l-1.2,2.6
				C72.9,72.9,70.8,72.8,68.8,73.5z M76.1,80.5L76.1,80.5l0,4c0,1.4-1.1,2.5-2.5,2.5c-1.4,0-2.5-1.1-2.5-2.5v-1.9l1.1-2.6l-4.1,0.6
				c0-2.2,1.8-4,4-4C74.3,76.6,76.1,78.4,76.1,80.5z M176.4,111.1c1.3,2.5,0.3,5.6-2.2,6.9l-2.9-9.7
				C173.4,108.2,175.4,109.2,176.4,111.1z M107.3,184.4l2.7,8.5l-4,3.2l-3.8,0.3l2.2-13.5L107.3,184.4z M122,163.6l-15.8,8.3l3.4-21
				l1.6-0.3l4.7,7.7l7.4,1.1L122,163.6z M118.7,130.9l-7,6.9l2.8-17.3h3.9l4.6,8.2l-0.9,2.2L118.7,130.9z M126.1,120.9l-3.9-5.1
				l2.6-3.8l4.7-0.7l3.1,4.1l-0.8,3L126.1,120.9z M132.3,134.4l-2.8-6.2l1.8-3.4l4.8-1.4l2.9,1.7l0,11.5L132.3,134.4z M139,146
				l0,22.2l-2.5,1l-7.8-6.2l0.5-4.1l7-4.6l-0.3-6.9L139,146z M121.4,137.1l10.2,2.8l0.6,9.2l-6.1,3.9l-7.8-1.6l-4.6-7.4L121.4,137.1
				z M134.5,175.2l0.8,6.7l-9.8,8.5l-9.6,0.4l-4.3-8.3l2.1-7.2l13.2-6.2L134.5,175.2z M142.5,73.5c-2,0.7-3.6,2.1-4.5,4l-2.6-1.2
				c1.2-2.6,3.4-4.6,6.1-5.5c2.7-1,5.6-0.8,8.2,0.4l-1.2,2.6C146.7,72.9,144.5,72.8,142.5,73.5z M150.2,80.5L150.2,80.5l0,4
				c0,1.4-1.1,2.5-2.5,2.5s-2.5-1.1-2.5-2.5v-1.6l1.2-2.9l-4.2,0.6c0-2.2,1.8-4,4-4C148.4,76.6,150.1,78.4,150.2,80.5z M142.9,186.7
				l-0.1-77.1l12.1,6.1l0.7,0.4c-0.2-2.4,0.2-4.5,0.4-6.2c0.1-0.3,0.1-0.7,0.2-1l0-0.1l0.1-0.7l3.3-0.9l-0.5,2.1
				c0,0.3-0.1,0.6-0.2,1c-0.3,2.1-0.8,4.6-0.1,7.4h0c0,0,0.1,0.5,0.3,1c0.9,3.3,4.6,7.9,10.3,8c7.5,0.2,11.6-5.8,12-11.1
				c0.2-4.1-1-8.4-3.4-12.7c-0.8-1.5-25.5-43.4-25.5-43.4l-5.6,0.2l-2.6,0.1l-7.4,0.2l-9.2,0.3c0,0,3-16.1,3.3-19.5
				c0.5-6.1-6.3-5.4-6.3-5.4l-5.5,31.4l-26.5-5.9c0,0-0.4,11.6,9.6,16.1c4.9,2.2,11.7,2.1,15,1.8c1.9-0.1,4.3-0.9,4.3-0.9l-5.5,8.2
				L98.3,196.3c-11.7-0.3-22.9-2.7-33.1-6.9l4.1-79.6l10.9,4.5l0.9,0.4c-0.2-2.5,0.1-4.8,0.4-6.5c0.1-0.3,0.1-0.7,0.1-1l0-0.1
				l0.1-0.7l3.3-0.9l-0.5,2.1c0,0.3-0.1,0.6-0.1,0.9c-0.3,2.1-0.8,4.6-0.1,7.4v0c0,0,0.2,0.5,0.3,1c1,3.3,4.8,7.7,10.5,7.7
				c7.5,0,11.5-6.1,11.6-11.5c0.1-4.1-1.3-8.3-3.7-12.6c-0.9-1.5-25.6-41.2-25.6-41.2L68.6,60l-7.4,0.4l-7.8,0.4l1.2-24.7
				c0,0-6.7-0.6-7.3,4.8c-0.4,3.7-1.6,25.5-1.6,25.5l-0.2,1.2l-12.7-4.9l-16,3.8c0,0,1.5,8.3,11.8,10.9c4.5,1.1,10.8,0.4,15.1-0.4
				c2-0.3,4.3-0.9,4.3-0.9l-5.8,8.7l-14.6,77.3c-13.9-16.6-22.2-37.9-22.2-61.2C5.5,48.1,48.2,5.4,101,5.4s95.5,42.7,95.5,95.5
				C196.4,138.6,174.6,171.1,142.9,186.7z M172.3,29.5C153.2,10.5,127.9,0,101,0C74,0,48.7,10.5,29.6,29.5
				c-19.1,19-29.5,44.4-29.5,71.3s10.5,52.3,29.5,71.3c19.1,19,44.4,29.5,71.3,29.5c26.9,0,52.3-10.5,71.3-29.5
				c19.1-19.1,29.5-44.4,29.5-71.3C201.8,73.9,191.3,48.6,172.3,29.5z"/>
		</g>
	</g>
</g>
</svg>
